<?xml version="1.0" standalone="no"?><!DOCTYPE svg PUBLIC "-//W3C//DTD SVG 1.1//EN" "http://www.w3.org/Graphics/SVG/1.1/DTD/svg11.dtd"><svg t="1533799930286" class="icon" style="" viewBox="0 0 1024 1024" version="1.1" xmlns="http://www.w3.org/2000/svg" p-id="14363" xmlns:xlink="http://www.w3.org/1999/xlink" width="200" height="200"><defs><style type="text/css"></style></defs><path d="M476.416 221.16352c-20.89984-20.89984-20.89984-54.80448 0-75.70432 20.89984-20.91008 54.79424-20.91008 75.70432 0l328.704 328.69376c10.4448 10.45504 15.6672 24.14592 15.6672 37.84704s-5.23264 27.40224-15.6672 37.84704l-328.704 328.69376c-20.91008 20.91008-54.80448 20.91008-75.70432 0-20.89984-20.89984-20.89984-54.79423999 0-75.70432L767.25248 512 476.416 221.16352zM434.03264 512l-290.83648 290.83648c-20.89984 20.91008-20.89984 54.80448 0 75.70432 20.89984 20.91008 54.79424 20.91008 75.70432 0l328.704-328.69376c10.4448-10.45504 15.6672-24.14592 15.6672-37.84704s-5.23264-27.40224-15.6672-37.84704l-328.704-328.69376c-20.91008-20.91008-54.80448-20.91008-75.70432 0-20.89984 20.89984-20.89984 54.80448 0 75.70432L434.03264 512z" p-id="14364"></path></svg>