<?xml version="1.0" standalone="no"?><!DOCTYPE svg PUBLIC "-//W3C//DTD SVG 1.1//EN" "http://www.w3.org/Graphics/SVG/1.1/DTD/svg11.dtd"><svg t="1533799258710" class="icon" style="" viewBox="0 0 1024 1024" version="1.1" xmlns="http://www.w3.org/2000/svg" p-id="10726" xmlns:xlink="http://www.w3.org/1999/xlink" width="200" height="200"><defs><style type="text/css"></style></defs><path d="M466.488889 637.155556c-68.266667 45.511111-130.844444 79.644444-130.844445 79.644444l-39.822222 22.755556-51.2-659.911112L796.444444 455.111111l-39.822222 22.755556s-62.577778 34.133333-136.533333 79.644444l170.666667 290.133333-147.911112 85.333334-176.355555-295.822222z" fill="#707070" p-id="10727"></path><path d="M278.755556 136.533333L739.555556 449.422222s-73.955556 39.822222-164.977778 91.022222l170.666666 290.133334-96.711111 56.888889-170.666666-295.822223c-85.333333 45.511111-159.288889 96.711111-159.288889 96.711112l-39.822222-551.822223M210.488889 22.755556l11.377778 119.466666 39.822222 557.511111 5.688889 96.711111 79.644444-51.2s51.2-28.444444 108.088889-68.266666l142.222222 244.622222 28.444445 51.2 51.2-28.444444 96.711111-56.888889 51.2-28.444445-28.444445-51.2-142.222222-244.622222c62.577778-34.133333 113.777778-62.577778 113.777778-62.577778l79.644444-45.511111-73.955555-51.2-466.488889-312.888889L210.488889 22.755556z" fill="#707070" p-id="10728"></path></svg>