<?xml version="1.0" standalone="no"?><!DOCTYPE svg PUBLIC "-//W3C//DTD SVG 1.1//EN" "http://www.w3.org/Graphics/SVG/1.1/DTD/svg11.dtd"><svg t="1533909513636" class="icon" style="" viewBox="0 0 1024 1024" version="1.1" xmlns="http://www.w3.org/2000/svg" p-id="3729" xmlns:xlink="http://www.w3.org/1999/xlink" width="200" height="200"><defs><style type="text/css"></style></defs><path d="M232.371009 543.455276c64.405091 0 128.810182 0.383871 193.193947-0.319893 13.755392-0.127957 27.08426 12.838366 27.041607 27.660067-0.533155 129.641903-0.341219 259.283807-0.234588 388.92571 0.021326 9.020978-2.025988 16.805037-9.362197 22.179237a28.257201 28.257201 0 0 1-10.620442 5.075633c-5.011654 1.023657-10.300549 0.981005-15.440161 0.981004l-376.641825 0.085305c-8.956999 0-17.487475-1.194267-22.60576-9.810047a39.879974 39.879974 0 0 1-5.011654-12.710408c-0.874374-4.542478-0.234588-9.362197-0.234589-14.096611-0.021326-126.890825 0.191936-253.78165-0.319892-380.672475-0.063979-15.184247 13.478151-27.745372 27.020281-27.596089 64.405091 0.682438 128.810182 0.298567 193.215273 0.298567zM230.600935 442.987599c-64.213155 0-128.447637-0.341219-192.639465 0.277241-13.926001 0.127957-25.762036-10.513811-25.698058-26.145908 0.383871-130.239037 0.213262-260.456747 0.234588-390.71711C12.498 12.710409 17.680264 4.265238 27.895508 1.322224c2.345881-0.682438 4.905023-0.810395 7.378862-0.810395C166.771651 0.490502 298.290259 0.618459 429.787541 0.255914c12.774387-0.021326 22.371172 12.155928 22.456477 22.541782 0.042652 5.096959 0.042652 10.172592 0.042653 15.290878 0.021326 124.544944 0.021326 249.111214-0.021327 373.656158-0.021326 7.592123 0.127957 14.992311-4.969002 21.795365a22.413825 22.413825 0 0 1-14.309872 8.743738 42.69503 42.69503 0 0 1-8.573128 0.682438l-193.812407 0.021326zM757.208522 0.469176c62.485734 0 124.992794-0.021326 187.478528 0.063979 5.672766 0 11.580121-0.149283 16.95432 1.34355 7.506819 2.06864 12.518473 7.314883 13.09428 15.951989 0.575807 8.573128 1.834052 17.103604 1.834052 25.676732 0.149283 122.796197 0.383871 245.592393-0.127957 368.367263-0.063979 16.805037-3.070971 24.589096-16.50647 29.856665a19.36418 19.36418 0 0 1-6.675097 1.322224c-130.729539 0.042652-261.480404 0.021326-392.209943 0-15.461487 0-23.757375-8.317214-23.757375-23.757375-0.021326-131.817175-0.106631-263.634349 0.085305-395.451524 0.021326-16.570449 7.954669-23.50146 24.290529-23.629417 3.070971-0.021326 6.120616 0.255914 9.191588 0.255914h186.34824zM513.812726 758.21c1.386202-23.67207 4.734414-46.619049 12.113275-68.819612 4.4785-13.478151 8.893021-27.169565 15.226899-39.752017a203.793063 203.793063 0 0 1 22.477804-34.548426c9.703416-12.283885 20.153249-24.205225 31.712043-34.633731 10.065961-9.084957 21.752713-16.527797 33.396812-23.522787a296.583311 296.583311 0 0 1 35.380148-17.786041c8.956999-3.817388 18.46848-6.845707 28.022612-8.551802 19.172244-3.433516 38.344488-8.274561 58.007234-5.992659 16.698406 1.940683 33.738031 3.113624 49.86063 7.506818 16.996973 4.627783 33.759357 11.388185 49.41278 19.598768 16.186577 8.551802 31.050931 19.684073 44.891628 32.223872a237.317832 237.317832 0 0 1 35.550757 41.116892c6.675097 9.660764 12.070623 20.345184 17.444823 30.858996 4.243912 8.274561 8.658433 16.698406 11.089618 25.612753 4.115954 15.013637 7.677428 30.325841 9.660764 45.787328 1.834052 14.26722 2.196597 28.918312 1.62079 43.356142-0.575807 14.757723-1.663443 29.622077-6.803054 43.825319-3.625452 10.065961-5.971333 20.579772-9.426175 30.688386-2.132619 6.205921-4.75574 12.36919-8.039974 18.020629a821.015626 821.015626 0 0 1-21.091601 34.036598c-2.388533 3.710757-2.047314 6.333878 0.8957 9.276892 17.444823 17.359518 34.868319 34.740362 52.227837 52.185185 10.599116 10.641768 21.624756 20.899665 31.328172 32.330503 6.71775 7.912016 3.902693 21.88067-4.094628 28.662398-6.973664 5.907354-21.816691 5.544809-28.406484-0.917026-23.096263-22.648413-46.107221-45.403457-69.22481-68.05187a153.697845 153.697845 0 0 0-12.987649-11.473489c-4.009324-3.177602-8.103952-1.642117-11.558794 1.322223-24.375834 20.686403-52.291816 33.780683-82.702962 42.41779-24.802358 7.058969-49.967261 7.293557-75.174816 6.504488a177.775112 177.775112 0 0 1-53.379451-10.535137c-17.359518-6.184595-34.548426-13.54213-49.58339-24.802358-13.222237-9.938004-26.63641-19.705399-38.856316-30.83767-8.189257-7.44284-14.843028-16.826363-21.43282-25.932646a339.299668 339.299668 0 0 1-19.278875-29.750033c-3.625452-6.291226-6.184595-13.328868-8.743738-20.217228a413.450827 413.450827 0 0 1-8.701085-26.01795 173.275286 173.275286 0 0 1-5.160938-21.560777c-2.175271-13.819371-3.796062-27.745372-5.672766-41.628721z m411.25423-0.426524c0.981005-105.180764-83.001528-186.689459-178.862748-188.31025-102.195098-1.727421-192.084985 85.326082-186.924047 197.736425 4.222585 92.043832 80.399733 183.362574 193.279252 178.308267 89.633973-4.009324 172.038367-79.269445 172.507543-187.734442z" p-id="3730" fill="#d4237a"></path></svg>