<?xml version="1.0" standalone="no"?><!DOCTYPE svg PUBLIC "-//W3C//DTD SVG 1.1//EN" "http://www.w3.org/Graphics/SVG/1.1/DTD/svg11.dtd"><svg t="1534848253689" class="icon" style="" viewBox="0 0 1025 1024" version="1.1" xmlns="http://www.w3.org/2000/svg" p-id="4180" xmlns:xlink="http://www.w3.org/1999/xlink" width="200.1953125" height="200"><defs><style type="text/css"></style></defs><path d="M532.736 661.408c-12.512 12.48-12.512 32.736 0 45.248 6.24 6.24 14.432 9.376 22.624 9.376s16.384-3.136 22.624-9.376l189.024-194.016-189.024-194.016c-12.48-12.48-32.736-12.48-45.248 0s-12.512 32.768 0 45.248l115.744 115.744-616.448 0c-17.664 0-32 14.336-32 32s14.336 32 32 32l618.432 0zM960.352 0l-576 0c-35.36 0-64.032 28.64-64.032 64l0 288 64.448 0 0-248.96c0-21.376 17.344-38.72 38.72-38.72l496.704 0c21.408 0 38.72 17.344 38.72 38.72l1.024 818.304c0 21.376-17.312 38.72-38.72 38.72l-497.696 0c-21.376 0-38.72-17.344-38.72-38.72l0-250.368-64.448 0.096 0 288.96c0 35.36 28.672 64 64.032 64l576 0c35.36 0 64-28.64 64-64l0-896c-0.032-35.36-28.672-64-64-64z" p-id="4181" fill="#8a8a8a"></path></svg>