<?xml version="1.0" standalone="no"?><!DOCTYPE svg PUBLIC "-//W3C//DTD SVG 1.1//EN" "http://www.w3.org/Graphics/SVG/1.1/DTD/svg11.dtd"><svg t="1534255033986" class="icon" style="" viewBox="0 0 1024 1024" version="1.1" xmlns="http://www.w3.org/2000/svg" p-id="1385" xmlns:xlink="http://www.w3.org/1999/xlink" width="200" height="200"><defs><style type="text/css"></style></defs><path d="M875.008 921.6c-11.776 0-23.552-4.608-32.768-13.824L116.224 181.76c-17.92-17.92-17.92-47.616 0-65.536s47.616-17.92 65.536 0l726.016 726.016c17.92 17.92 17.92 47.616 0 65.536-8.704 9.216-20.992 13.824-32.768 13.824z" fill="#515151" p-id="1386"></path><path d="M148.992 921.6c-11.776 0-23.552-4.608-32.768-13.824-17.92-17.92-17.92-47.616 0-65.536L842.24 116.224c17.92-17.92 47.616-17.92 65.536 0s17.92 47.616 0 65.536L181.76 907.776c-9.216 9.216-20.992 13.824-32.768 13.824z" fill="#515151" p-id="1387"></path></svg>