<?xml version="1.0" standalone="no"?><!DOCTYPE svg PUBLIC "-//W3C//DTD SVG 1.1//EN" "http://www.w3.org/Graphics/SVG/1.1/DTD/svg11.dtd"><svg t="1533870995261" class="icon" style="" viewBox="0 0 1025 1024" version="1.1" xmlns="http://www.w3.org/2000/svg" p-id="2959" xmlns:xlink="http://www.w3.org/1999/xlink" width="200.1953125" height="200"><defs><style type="text/css"></style></defs><path d="M990.993882 584.690163c18.170814 0 33.034005-14.863191 33.034005-33.034005l0-79.279736c0-18.168937-14.863191-33.034005-33.029314-33.034005L617.719476 439.342416c-18.166122 0-33.029314-14.866006-33.029314-33.034005L584.690163 33.033067c0-18.166122-14.867883-33.032129-33.038697-33.032129l-79.277859 0c-18.168937 0-33.032129 14.866006-33.034005 33.034005l0.002815 373.272529c0 18.168937-14.866006 33.032129-33.034005 33.034005L33.033067 439.339601c-18.166122 0-33.032129 14.866006-33.032129 33.034005l-0.002815 79.277859c0 18.170814 14.866006 33.038697 33.034005 33.038697l373.274406 0c18.168937 0 33.034005 14.863191 33.032129 33.029314l0.002815 373.279098c0 18.166122 14.863191 33.029314 33.032129 33.029314l79.277859 0c18.170814 0 33.034005-14.863191 33.038697-33.029314L584.690163 617.719476c0-18.166122 14.863191-33.029314 33.029314-33.029314l373.279098 0L990.993882 584.690163z" p-id="2960" fill="#2c2c2c"></path></svg>