<?xml version="1.0" standalone="no"?><!DOCTYPE svg PUBLIC "-//W3C//DTD SVG 1.1//EN" "http://www.w3.org/Graphics/SVG/1.1/DTD/svg11.dtd"><svg t="1534847786452" class="icon" style="" viewBox="0 0 1024 1024" version="1.1" xmlns="http://www.w3.org/2000/svg" p-id="3253" xmlns:xlink="http://www.w3.org/1999/xlink" width="200" height="200"><defs><style type="text/css"></style></defs><path d="M997.695288 936.170507a53.169129 53.169129 0 0 1 13.784589 35.446086A52.775283 52.775283 0 0 1 958.310748 1023.998031a55.532201 55.532201 0 0 1-17.723042-2.756918 47.261448 47.261448 0 0 1-15.359971-8.664599l-6.301526-4.726144-283.568686-284.356377A384.786952 384.786952 0 0 1 406.927193 795.567701h-25.59995q-12.996898 0-25.599951-3.544609a368.245446 368.245446 0 0 1-162.264304-59.470655 384.786952 384.786952 0 0 1-127.999753-135.876661A371.002363 371.002363 0 0 1 30.017149 511.999015 408.417676 408.417676 0 0 1 13.081797 421.80842a387.150025 387.150025 0 0 1 5.907681-91.372132 377.30389 377.30389 0 0 1 50.412211-137.845889 380.454653 380.454653 0 0 1 98.461349-109.095175A380.848498 380.848498 0 0 1 280.502821 21.661497a390.300788 390.300788 0 0 1 179.987346-18.116888 393.845396 393.845396 0 0 1 129.18129 39.384539 381.636189 381.636189 0 0 1 107.519794 82.313688 375.334663 375.334663 0 0 1 81.919842 132.725899 397.390005 397.390005 0 0 1 24.418415 155.568931 386.756179 386.756179 0 0 1-90.190596 236.307238L997.695288 936.170507zM744.058853 413.537666A320.590153 320.590153 0 0 0 722.003511 275.691778a323.740916 323.740916 0 0 0-39.38454-75.618317 333.587051 333.587051 0 0 0-60.258346-62.227572 338.313196 338.313196 0 0 0-72.467553-46.473757A332.405515 332.405515 0 0 0 371.481108 63.015263H354.545756a331.617824 331.617824 0 0 0-236.307238 161.082768 324.134761 324.134761 0 0 0-44.898375 157.538158 323.34707 323.34707 0 0 0 31.507631 157.538159 320.196307 320.196307 0 0 0 86.252142 114.215165A331.223978 331.223978 0 0 0 540.440783 708.921714a343.827031 343.827031 0 0 0 125.242836-93.341359 309.562482 309.562482 0 0 0 42.929148-65.772182 328.073215 328.073215 0 0 0 35.446086-134.695125z" fill="#8a8a8a" p-id="3254"></path></svg>