<?xml version="1.0" standalone="no"?><!DOCTYPE svg PUBLIC "-//W3C//DTD SVG 1.1//EN" "http://www.w3.org/Graphics/SVG/1.1/DTD/svg11.dtd"><svg t="1534688080014" class="icon" style="" viewBox="0 0 1025 1024" version="1.1" xmlns="http://www.w3.org/2000/svg" p-id="1051" xmlns:xlink="http://www.w3.org/1999/xlink" width="200.1953125" height="200"><defs><style type="text/css"></style></defs><path d="M382.489958 42.585043c-164.886261 0-299.030261 134.166261-299.030261 299.074783 0 29.673739 4.296348 58.88 12.777739 86.839652 3.584 11.753739 15.938783 18.387478 27.781565 14.848 11.753739-3.584 18.409739-16.005565 14.848-27.781565-7.212522-23.752348-10.863304-48.64-10.863304-73.906087 0-140.354783 114.176-254.553043 254.508522-254.553043 140.354783 0 254.553043 114.176 254.553043 254.553043 0 140.332522-114.176 254.508522-254.553043 254.508522-31.232 0-61.640348-5.542957-90.334609-16.428522-11.464348-4.296348-24.33113 1.402435-28.716522 12.911304-4.36313 11.486609 1.424696 24.353391 12.911304 28.716522 33.769739 12.822261 69.498435 19.322435 106.139826 19.322435 164.908522 0 299.074783-134.144 299.074783-299.030261C681.56474 176.751304 547.39848 42.585043 382.489958 42.585043z" p-id="1052" fill="#707070"></path><path d="M1001.742827 513.001739c-12.288 0-22.26087 9.97287-22.26087 22.26087 0 46.458435-37.776696 84.257391-84.190609 84.257391-46.436174 0-84.21287-37.798957-84.21287-84.257391 0-46.413913 37.776696-84.168348 84.21287-84.168348 18.365217 0 35.817739 5.810087 50.487652 16.784696 9.861565 7.390609 23.79687 5.36487 31.165217-4.474435 7.368348-9.839304 5.36487-23.79687-4.474435-31.165217-22.416696-16.784696-49.107478-25.666783-77.178435-25.666783-70.989913 0-128.734609 57.722435-128.734609 128.690087 0 71.012174 57.744696 128.77913 128.734609 128.77913 70.967652 0 128.712348-57.766957 128.712348-128.77913C1024.003697 522.974609 1014.030827 513.001739 1001.742827 513.001739z" p-id="1053" fill="#707070"></path><path d="M873.987697 535.262609c0 11.820522 9.527652 21.325913 21.303652 21.325913 11.753739 0 21.25913-9.527652 21.25913-21.325913 0-11.709217-9.505391-21.25913-21.25913-21.25913C883.493088 514.025739 873.987697 523.553391 873.987697 535.262609z" p-id="1054" fill="#707070"></path><path d="M401.122306 331.486609c-6.722783-10.262261-20.502261-13.178435-30.809043-6.455652-215.04 140.621913-353.435826 377.121391-370.265043 632.653913-0.801391 12.265739 8.481391 22.861913 20.769391 23.663304 0.489739 0.022261 0.979478 0.044522 1.469217 0.044522 11.620174 0 21.414957-9.037913 22.194087-20.813913C60.375175 718.981565 191.291349 495.304348 394.666653 362.295652 404.973436 355.57287 407.845088 341.793391 401.122306 331.486609z" p-id="1055" fill="#707070"></path></svg>